<!-- icon666.com - MILLIONS vector ICONS FREE --><svg id="icons" enable-background="new 0 0 64 64" viewBox="0 0 64 64" xmlns="http://www.w3.org/2000/svg"><path d="m8.01 49.5v8h-4v-33h4v22z" fill="#ccd1d9"></path><path d="m8.01 46.5h47.99v3h-47.99z" fill="#aab2bd"></path><path d="m60 24.5v33h-4v-8-3-8h.01v-14z" fill="#ccd1d9"></path><path d="m49.01 31.5h3v3h-3z" fill="#434a54"></path><path d="m49.01 28.5h3v3h-3z" fill="#656d78"></path><path d="m56 24.5v14h-22.99v-14zm-3.99 10v-3-3h-3v3 3z" fill="#545c66"></path><path d="m46.01 19.5h-6c0-1.66 1.35-3 3-3 1.66 0 3 1.34 3 3z" fill="#aab2bd"></path><path d="m53.01 19.5c0-5.52-4.47-10-10-10-2.79 0-5.32 1.15-7.14 3h-3.81c2.311-3.61 6.351-6 10.95-6 7.18 0 13 5.82 13 13z" fill="#e6e9ed"></path><path d="m43.01 9.5c5.53 0 10 4.48 10 10h-7c0-1.66-1.34-3-3-3-1.65 0-3 1.34-3 3h-2.99v-7h-1.15c1.819-1.85 4.35-3 7.14-3z" fill="#ccd1d9"></path><path d="m3 12.5h12.989c0 1.66-1.329 2.99-2.989 3h-.011-9.989z" fill="#ffd2a6"></path><path d="m37.02 12.5v7h-34.02v-4h9.989.011c1.66-.01 2.989-1.34 2.989-3h16.07 3.811z" fill="#ffd2a6"></path><path d="m40.01 19.5h6 7 3 6.99v5h-3-3.99-.01-22.99-25-4-3.01v-5h2 34.02z" fill="#656d78"></path><path d="m63 25.499h-62c-.553 0-1-.448-1-1v-5c0-.552.447-1 1-1h62c.553 0 1 .448 1 1v5c0 .552-.447 1-1 1zm-61-2h60v-3h-60z"></path><path d="m8.001 58.5h-4c-.553 0-1-.447-1-1v-33.001c0-.552.447-1 1-1h4c.553 0 1 .448 1 1v33.001c0 .553-.447 1-1 1zm-3-2h2v-31.001h-2z"></path><path d="m60 58.5h-4c-.553 0-1-.447-1-1v-33.001c0-.552.447-1 1-1h4c.553 0 1 .448 1 1v33.001c0 .553-.447 1-1 1zm-3-2h2v-31.001h-2z"></path><path d="m56 47.498h-47.999c-.553 0-1-.447-1-1s.447-1 1-1h47.999c.553 0 1 .447 1 1s-.447 1-1 1z"></path><path d="m56 50.498h-47.999c-.553 0-1-.447-1-1s.447-1 1-1h47.999c.553 0 1 .447 1 1s-.447 1-1 1z"></path><path d="m56.01 20.5c-.553 0-1-.448-1-1 0-6.617-5.383-12-12-12-4.111 0-7.892 2.07-10.113 5.537-.298.465-.917.6-1.381.302-.466-.298-.601-.916-.303-1.381 2.591-4.043 7.001-6.458 11.797-6.458 7.72 0 14 6.28 14 14 0 .553-.447 1-1 1z"></path><path d="m53.011 20.5c-.553 0-1-.448-1-1 0-4.963-4.038-9.001-9.002-9.001 0 0-.001 0-.002 0-2.438 0-4.72.958-6.426 2.699-.387.394-1.021.399-1.414.014-.395-.387-.4-1.02-.014-1.415 2.085-2.127 4.874-3.299 7.854-3.299h.002c6.066 0 11.002 4.935 11.002 11.001 0 .554-.448 1.001-1 1.001z"></path><path d="m46.011 20.5c-.553 0-1-.448-1-1 0-1.104-.898-2.001-2.002-2.001s-2.001.898-2.001 2.001c0 .552-.447 1-1 1s-1-.448-1-1c0-2.207 1.795-4.001 4.001-4.001 2.207 0 4.002 1.795 4.002 4.001 0 .553-.448 1-1 1z"></path><path d="m37.012 20.5h-34.012c-.553 0-1-.448-1-1v-7.002c0-.552.447-1 1-1h34.012c.553 0 1 .448 1 1v7.002c0 .553-.448 1-1 1zm-33.012-2h32.012v-5.002h-32.012z"></path><path d="m13 16.499h-10c-.553 0-1-.448-1-1s.447-1 1-1h10c.553 0 1 .448 1 1s-.447 1-1 1z"></path><path d="m12.984 16.499c-.553 0-1-.448-1-1s.447-1 1-1c1.104 0 2.001-.897 2.001-2 0-.552.447-1 1-1s1 .448 1 1c0 2.206-1.795 4-4.001 4z"></path><path d="m37 17.499h-8c-.553 0-1-.448-1-1s.447-1 1-1h8c.553 0 1 .448 1 1s-.447 1-1 1z"></path><path d="m56.01 39.504h-23.007c-.553 0-1-.447-1-1v-14.005c0-.552.447-1 1-1h23.007c.553 0 1 .448 1 1v14.005c0 .553-.447 1-1 1zm-22.007-2h21.007v-12.005h-21.007z"></path><path d="m45.003 29.5h-8c-.553 0-1-.448-1-1s.447-1 1-1h8c.553 0 1 .448 1 1s-.447 1-1 1z"></path><path d="m45.003 32.5h-8c-.553 0-1-.448-1-1s.447-1 1-1h8c.553 0 1 .448 1 1s-.447 1-1 1z"></path><path d="m45.003 35.504h-8c-.553 0-1-.447-1-1s.447-1 1-1h8c.553 0 1 .447 1 1s-.447 1-1 1z"></path><path d="m52.003 35.504h-3.001c-.553 0-1-.447-1-1v-6.004c0-.552.447-1 1-1h3.001c.553 0 1 .448 1 1v6.004c0 .553-.447 1-1 1zm-2.001-2h1.001v-4.004h-1.001z"></path><path d="m52.002 32.501h-3c-.553 0-1-.448-1-1s.447-1 1-1h3c.553 0 1 .448 1 1s-.447 1-1 1z"></path></svg>