<!-- icon666.com - MILLIONS vector ICONS FREE --><svg version="1.1" id="Capa_1" xmlns="http://www.w3.org/2000/svg" xmlns:xlink="http://www.w3.org/1999/xlink" x="0px" y="0px" viewBox="0 0 512 512" style="enable-background:new 0 0 512 512;" xml:space="preserve"><rect x="256" y="35.31" style="fill:#AF8762;" width="238.345" height="476.69"></rect><rect x="17.655" y="35.31" style="fill:#D3AA80;" width="238.345" height="476.69"></rect><rect x="52.966" y="70.621" style="fill:#AF8762;" width="167.724" height="406.069"></rect><g><rect style="fill:#E7C499;" width="512" height="35.31"></rect><rect x="88.276" y="114.759" style="fill:#E7C499;" width="97.103" height="35.31"></rect><rect x="88.276" y="397.241" style="fill:#E7C499;" width="97.103" height="35.31"></rect><rect x="88.276" y="326.621" style="fill:#E7C499;" width="97.103" height="35.31"></rect><rect x="88.276" y="256" style="fill:#E7C499;" width="97.103" height="35.31"></rect><rect x="88.276" y="185.379" style="fill:#E7C499;" width="97.103" height="35.31"></rect><rect x="256" y="176.552" style="fill:#E7C499;" width="238.345" height="35.31"></rect><rect x="256" y="476.69" style="fill:#E7C499;" width="238.345" height="35.31"></rect></g><path style="fill:#E7ECED;" d="M353.103,476.69h-52.966v-88.276c0-14.627,11.855-26.483,26.483-26.483l0,0 c14.627,0,26.483,11.855,26.483,26.483V476.69z"></path><circle style="fill:#ED8A19;" cx="326.621" cy="335.448" r="26.483"></circle><rect x="300.138" y="406.069" style="fill:#EBBA16;" width="52.966" height="35.31"></rect><g><path style="fill:#E7ECED;" d="M423.724,397.241c-4.873,0-8.828-3.946-8.828-8.828v-61.793c0-4.882,3.955-8.828,8.828-8.828 c4.873,0,8.828,3.946,8.828,8.828v61.793C432.552,393.295,428.597,397.241,423.724,397.241z"></path><path style="fill:#E7ECED;" d="M423.715,397.241c-1.845,0-3.699-0.574-5.288-1.766c-3.902-2.922-4.687-8.457-1.766-12.35 l26.483-35.31c2.931-3.902,8.466-4.679,12.359-1.766c3.902,2.922,4.687,8.457,1.766,12.35l-26.483,35.31 C429.056,396.023,426.399,397.241,423.715,397.241z"></path><path style="fill:#E7ECED;" d="M423.733,397.241c-2.684,0-5.332-1.218-7.071-3.531l-26.483-35.31 c-2.922-3.893-2.136-9.428,1.766-12.35c3.902-2.913,9.437-2.136,12.359,1.766l26.483,35.31c2.922,3.893,2.136,9.428-1.766,12.35 C427.432,396.668,425.569,397.241,423.733,397.241z"></path><path style="fill:#E7ECED;" d="M423.724,123.586h-97.103c-4.873,0-8.828-3.946-8.828-8.828v-35.31c0-4.882,3.955-8.828,8.828-8.828 h97.103c4.873,0,8.828,3.946,8.828,8.828v35.31C432.552,119.64,428.597,123.586,423.724,123.586z M335.448,105.931h79.448V88.276 h-79.448V105.931z"></path></g><rect x="308.966" y="105.931" style="fill:#366DB6;" width="132.414" height="70.621"></rect><path style="fill:#EBBA16;" d="M397.241,150.069h-44.138c-4.873,0-8.828-3.946-8.828-8.828s3.955-8.828,8.828-8.828h44.138 c4.873,0,8.828,3.946,8.828,8.828C406.069,146.123,402.114,150.069,397.241,150.069z"></path><rect x="397.241" y="388.414" style="fill:#CB465F;" width="52.966" height="88.276"></rect></svg>